<?xml version="1.0" standalone="no"?><!DOCTYPE svg PUBLIC "-//W3C//DTD SVG 1.1//EN" "http://www.w3.org/Graphics/SVG/1.1/DTD/svg11.dtd"><svg t="1615815493881" class="icon" viewBox="0 0 1024 1024" version="1.1" xmlns="http://www.w3.org/2000/svg" p-id="25162" data-spm-anchor-id="a313x.7781069.0.i41" xmlns:xlink="http://www.w3.org/1999/xlink" width="64" height="64"><defs><style type="text/css"></style></defs><path d="M296 876.4c63.2-84.1 197.2-251.5 260.7-335.4l64.8-85.8-39-32.4-38.5-33.1-74 78.1c-72.2 76.6-214.8 236.7-287.2 313.1-18.2 19.2-27.3 43.7-25.6 68.9 2.8 42.3 33.1 67.7 75 63.4 25.2-2.6 47.9-15.7 63.8-36.8zM947.9 383.5c-9.6-8.1-19.3-16.3-29-24.4-10.8-9.1-21.6-18.3-32.3-27.3-3.7-3.2-7.2-4.3-12-3.9-2.5 0.2-25.1 2.5-31.4 3.1l-1.9 0.2c-22.7 1.7-34.3-8.3-36.6-31.5l-0.7-5.8c-0.6-5.1-1.1-10.2-1.3-15.3-0.2-6.8-3-11.9-9.4-17.5-32.8-28.6-71.5-62.5-110-97.3-16.3-14.8-34.9-26.2-56.9-34.9-48.5-19.6-94.3-24-140.1-13.9-22.6 5-43.7 13.4-63.8 25.4-11 6.6-6.6 23.6 6.2 23.8 24.6 0.3 46.8 4.6 68 12.9 49.2 19.3 79.8 60.9 81.6 111.3 0.8 23.2-4 46.2-14.2 68.4 14.5 12.4 29.3 25 43.8 37.5 12.4 10.6 24.5 21 35.7 30.7 12.9-14 15.9-16.7 18.4-18.5 15.7-10.9 34.4-13.4 50.2-6.9 5.1 2.1 10.2 5.3 15 9.4 21.7 18.1 27.4 43.6 15.3 68.6 5 4.1 10.1 8.2 15.1 12.3 20.1 16.6 41.1 33.8 62 49.8 3.1 2.3 5.6 3.6 7.2 3.5 0.8-0.1 3.3-0.7 8-5L926 431.9l24-29.9c4.9-6.3 6.2-11.4-2.1-18.5zM132 322.7c0.4-0.3 0.8-0.6 1.1-1.1 0.1-0.1 0.1-0.2 0.2-0.3 0.3-0.4 0.6-0.8 0.8-1.3 0.5-0.8 1-1.6 1.6-2.4 2.2-3.4 4.5-6.8 6.7-10.2 3-4.6 6.1-9.3 9.1-13.9 3.3-5 6.6-10 9.8-15 3-4.5 5.9-9 8.9-13.5 2.1-3.2 4.1-6.3 6.2-9.5 1.2-1.9 2.5-3.8 2.5-6.1 0-2.7-1.3-5.4-3.6-6.8-1.4-0.9-2.9-1.7-4.3-2.7l-44.2-28.4c-18.1-11.6-33.7-21.7-35.5-22.8l-8.7-5.6c-2.5-1.6-5.8 0.2-5.9 3.2l-0.1 10.4c0 2.7-0.1 5.3-0.2 7.8-0.2 5.4-0.4 10.6 0 15.8 3.4 43.1 15.6 76.8 36.3 100.1 0.5 0.5 0.9 1 1.4 1.6l0.2 0.2c0.1 0.1 0.2 0.2 0.2 0.3 4.3 4.9 12 5.1 17.1 0.5 0.2 0 0.3-0.2 0.4-0.3z" p-id="25163" data-spm-anchor-id="a313x.7781069.0.i38" class="selected" fill="#1D6EFE"></path><path d="M442.8 442.1c-23.7 25.2-55.4 59.7-89.2 96.8-28.7-37.9-60.6-72.8-101.9-97.1-26.9-15.7-56.9-24.4-88-26.3-15.1-0.8-35.4-0.6-43.8-16-6-10.6 7.6-21.8 13-29.9 13.7-20.7 27.2-41.3 40.8-61.9 19.5-29.4 39-58.9 58.5-88.3-7.8-5.5-34.4-22.6-42.8-28.1-21.6-13.8-43.9-28.4-62.7-45.8l-0.9-0.9c-2.9-3.2-3.7-7.9-2.3-11.8 2.5-6.5 9-9.9 27.9-14.7 10-2.6 20.6-4.7 23.1-5.1 20.3-2.4 39.9-2.7 58.4-0.8 30.3 3.4 72.8 14.3 103.6 49l1.3 1.6c17.2 20 29.2 44.5 33.9 70.6 4.6 24.8-4.2 49.6-1.8 74.7 2 20.6 8.5 40.2 18.3 58.2 14.8 27.4 35.8 50.4 57 73.1l-2.4 2.7zM759.7 835.8c-8.4 47.6-47.3 78.3-96.8 76.1-29.6-1.4-54.9-14.7-71.2-37.7-14.1-19.7-28.1-39.4-42.2-59.2l-75.6-106.5c36.2-46.1 72.1-92 99.3-127.6 54.5 59.9 109.1 119.6 164.5 178.7 19.2 20.6 27.1 47.6 22 76.2z" p-id="25164" data-spm-anchor-id="a313x.7781069.0.i42" class="selected" fill="#1D6EFE"></path></svg>