<?xml version="1.0" standalone="no"?><!DOCTYPE svg PUBLIC "-//W3C//DTD SVG 1.1//EN" "http://www.w3.org/Graphics/SVG/1.1/DTD/svg11.dtd"><svg t="1615815567023" class="icon" viewBox="0 0 1024 1024" version="1.1" xmlns="http://www.w3.org/2000/svg" p-id="26008" xmlns:xlink="http://www.w3.org/1999/xlink" width="64" height="64"><defs><style type="text/css"></style></defs><path d="M549.948235 210.823529l72.884706 46.08c14.757647 9.336471 31.322353 14.155294 48.489412 14.155295H963.764706v542.117647H60.235294V210.823529h489.712941m8.734118-60.235294H30.117647c-16.564706 0-30.117647 13.552941-30.117647 30.117647v662.588236c0 16.564706 13.552941 30.117647 30.117647 30.117647h963.764706c16.564706 0 30.117647-13.552941 30.117647-30.117647V240.941176c0-16.564706-13.552941-30.117647-30.117647-30.117647H671.322353c-5.722353 0-11.444706-1.505882-16.263529-4.818823l-80.414118-50.898824a29.033412 29.033412 0 0 0-15.962353-4.517647z" fill="#1D6EFE" p-id="26009" data-spm-anchor-id="a313x.7781069.0.i58" class="selected"></path><path d="M421.647059 331.294118H150.588235c-16.564706 0-30.117647-13.552941-30.117647-30.117647s13.552941-30.117647 30.117647-30.117647h271.058824c16.564706 0 30.117647 13.552941 30.117647 30.117647s-13.552941 30.117647-30.117647 30.117647zM662.588235 421.647059h-30.117647c-16.564706 0-30.117647-13.552941-30.117647-30.117647s13.552941-30.117647 30.117647-30.117647h30.117647c16.564706 0 30.117647 13.552941 30.117647 30.117647s-13.552941 30.117647-30.117647 30.117647zM873.411765 421.647059h-90.352941c-16.564706 0-30.117647-13.552941-30.117648-30.117647s13.552941-30.117647 30.117648-30.117647h90.352941c16.564706 0 30.117647 13.552941 30.117647 30.117647s-13.552941 30.117647-30.117647 30.117647zM210.823529 421.647059H150.588235c-16.564706 0-30.117647-13.552941-30.117647-30.117647s13.552941-30.117647 30.117647-30.117647h60.235294c16.564706 0 30.117647 13.552941 30.117647 30.117647s-13.552941 30.117647-30.117647 30.117647zM388.216471 692.705882H271.058824v-50.29647h80.414117c16.564706 0 30.117647-13.552941 30.117647-30.117647s-13.552941-30.117647-30.117647-30.117647H271.058824v-50.296471h111.134117c16.564706 0 30.117647-13.552941 30.117647-30.117647s-13.552941-30.117647-30.117647-30.117647H240.941176c-16.564706 0-30.117647 13.552941-30.117647 30.117647V722.823529c0 16.564706 13.552941 30.117647 30.117647 30.117647h147.275295c16.564706 0 30.117647-13.552941 30.117647-30.117647s-13.552941-30.117647-30.117647-30.117647zM843.294118 692.705882h-117.157647v-190.644706c0-16.564706-13.552941-30.117647-30.117647-30.117647s-30.117647 13.552941-30.117648 30.117647V722.823529c0 16.564706 13.552941 30.117647 30.117648 30.117647H843.294118c16.564706 0 30.117647-13.552941 30.117647-30.117647s-13.552941-30.117647-30.117647-30.117647zM615.604706 471.943529h-147.275294c-16.564706 0-30.117647 13.552941-30.117647 30.117647s13.552941 30.117647 30.117647 30.117648H512V722.823529c0 16.564706 13.552941 30.117647 30.117647 30.117647s30.117647-13.552941 30.117647-30.117647v-190.644705h43.369412c16.564706 0 30.117647-13.552941 30.117647-30.117648s-13.251765-30.117647-30.117647-30.117647z" fill="#1D6EFE" p-id="26010" data-spm-anchor-id="a313x.7781069.0.i55" class="selected"></path></svg>