<?xml version="1.0" standalone="no"?><!DOCTYPE svg PUBLIC "-//W3C//DTD SVG 1.1//EN" "http://www.w3.org/Graphics/SVG/1.1/DTD/svg11.dtd"><svg t="1615815521521" class="icon" viewBox="0 0 1024 1024" version="1.1" xmlns="http://www.w3.org/2000/svg" p-id="25422" xmlns:xlink="http://www.w3.org/1999/xlink" width="64" height="64"><defs><style type="text/css"></style></defs><path d="M851.82464 50.99008H382.44352c-70.20032 0-127.40096 57.20064-127.40096 127.49824v469.888c0 70.2976 57.09824 127.49824 127.40096 127.49824h469.38112c33.97632 0 66.00704-13.30176 90.05056-37.34016 24.04352-24.04864 37.24288-56.07936 37.24288-90.15808V178.49344c0.10752-70.30272-56.99072-127.50336-127.29344-127.50336z m48.30208 597.39136a48.6912 48.6912 0 0 1-48.71168 48.71168H382.03392c-26.80832 0-48.71168-21.89824-48.71168-48.71168V178.49344a48.69632 48.69632 0 0 1 48.71168-48.70656h469.38112c26.80832 0 48.71168 21.89824 48.71168 48.70656v469.888z" fill="#1D6EFE" p-id="25423" data-spm-anchor-id="a313x.7781069.0.i47" class="selected"></path><path d="M477.51168 869.41184a26.29632 26.29632 0 0 1-26.30144 26.30144h-289.9968c-14.42816 0-26.30144-11.77088-26.30144-26.30144v-290.29888a26.2912 26.2912 0 0 1 26.30144-26.30144h46.24896V496.53248h-46.24896c-45.5424 0-82.47808 37.03808-82.47808 82.58048v290.29888c0 45.5424 37.03808 82.58048 82.47808 82.58048h289.9968c45.53728 0 82.47296-37.03808 82.47296-82.58048v-46.24896H477.40416v46.24896h0.10752z m194.42176-281.50272c-10.54208 0-20.36736-5.9392-25.17504-15.04256l-3.2768-6.3488c-4.39808-7.36768-12.38016-11.86816-20.87424-11.86816s-16.47616 4.50048-20.87424 11.86816l-3.2768 6.3488c-4.70528 9.09824-14.62784 15.04256-25.16992 15.04256-1.536 0-3.072-0.1024-4.60288-0.4096l-0.8192-0.1024-0.7168-0.20992c-4.39808-1.42848-8.3968-2.9696-12.18048-4.50048a134.6048 134.6048 0 0 1-11.76576-5.42208l-0.72192-0.4096-0.60928-0.52224c-9.82528-7.06048-14.22336-19.94752-10.74688-31.4112l2.1504-6.8608a24.43264 24.43264 0 0 0-6.34368-23.12192 24.064 24.064 0 0 0-17.18784-7.168c-2.048 0-4.096 0.20992-6.0416 0.72192l-6.75328 2.1504c-2.6624 0.8192-5.4272 1.2288-8.18688 1.2288-9.10848 0-18.01216-4.608-23.22944-11.97056l-0.512-0.61952-0.31232-0.71168a219.136 219.136 0 0 1-5.42208-11.77088c-1.6384-4.10112-3.16928-8.192-4.50048-12.18048l-0.20992-0.72192-0.1024-0.80896c-2.048-11.9808 3.98848-24.25856 14.62784-29.77792l6.3488-3.28192c7.36256-4.39808 11.86816-12.38016 11.86816-20.86912s-4.5056-16.48128-11.86816-20.87936l-6.3488-3.27168c-10.63936-5.5296-16.68096-17.81248-14.62784-29.77792l0.1024-0.8192 0.20992-0.7168c1.42848-4.39808 2.96448-8.39168 4.50048-12.17536 1.6384-4.096 3.4816-8.08448 5.42208-11.86816l0.31232-0.72192 0.4096-0.60928c5.2224-7.36768 14.12096-11.97568 23.22944-11.97568 2.75968 0 5.51936 0.4096 8.18688 1.22368l6.85568 2.1504c1.9456 0.512 3.98848 0.72192 5.93408 0.72192 6.54848 0 12.58496-2.56 17.18784-7.06048 6.0416-6.0416 8.49408-14.94016 6.34368-23.13216l-2.1504-6.85568c-3.57888-11.45856 0.8192-24.35584 10.64448-31.41632l0.6144-0.512 0.7168-0.4096a217.088 217.088 0 0 1 11.76576-5.4272c4.39808-1.83808 8.3968-3.2768 12.27776-4.50048l0.7168-0.2048 0.72192-0.1024c1.536-0.20992 3.072-0.4096 4.60288-0.4096 10.54208 0 20.46464 5.92896 25.16992 15.04256l3.2768 6.34368c4.39808 7.36256 12.38016 11.86816 20.87424 11.86816s16.47616-4.5056 20.87424-11.86816l3.2768-6.34368c4.70528-9.10848 14.63296-15.04256 25.17504-15.04256 1.536 0 3.072 0.1024 4.60288 0.4096l0.81408 0.1024 0.72192 0.2048c4.39808 1.42848 8.39168 2.96448 12.17536 4.50048s7.67488 3.2768 11.77088 5.4272l0.7168 0.4096 0.6144 0.512c9.92256 7.06048 14.32576 20.06016 10.63936 31.41632l-2.1504 6.75328a24.44288 24.44288 0 0 0 6.34368 23.12704 24.07424 24.07424 0 0 0 17.18784 7.16288c2.048 0 4.096-0.20992 6.0416-0.72192l6.85568-2.1504a27.4944 27.4944 0 0 1 8.18688-1.22368c9.10848 0 18.01216 4.60288 23.22944 11.97568l0.512 0.60928 0.31232 0.72192a213.5552 213.5552 0 0 1 5.42208 11.76576c1.6384 4.096 3.1744 8.18688 4.5056 12.17536l0.2048 0.72192 0.1024 0.8192c2.048 11.97056-3.98848 24.24832-14.62784 29.7728l-6.34368 3.2768a24.37632 24.37632 0 0 0-11.86816 20.87936c0 8.48896 4.50048 16.47104 11.86816 20.86912l6.34368 3.28192c10.63936 5.51936 16.68096 17.80224 14.62784 29.88032l-0.1024 0.71168-0.2048 0.72192c-1.4336 4.39808-2.9696 8.39168-4.5056 12.18048-1.536 3.77856-3.2768 7.57248-5.42208 11.76064l-0.4096 0.72192-0.512 0.60928a28.672 28.672 0 0 1-23.33696 11.9808c-2.75968 0-5.52448-0.4096-8.07936-1.2288l-6.8608-2.1504a24.576 24.576 0 0 0-23.12192 6.33856 24.35584 24.35584 0 0 0-6.34368 23.22944l2.1504 6.7584c3.57888 11.45856-0.8192 24.35072-10.74688 31.4112l-0.6144 0.512-0.7168 0.31232c-3.6864 1.83808-7.67488 3.68128-11.77088 5.42208-4.09088 1.7408-8.18688 3.16928-12.27264 4.50048l-0.72192 0.20992-0.81408 0.1024c-1.12128 0.50688-2.65728 0.7168-4.19328 0.7168z m-49.42336-242.62144c-40.7296 0-73.7792 33.05472-73.7792 73.78432 0 40.71936 33.0496 73.76896 73.7792 73.76896 40.72448 0 73.77408-33.0496 73.77408-73.76896 0-40.6272-33.0496-73.78432-73.77408-73.78432z" fill="#1D6EFE" p-id="25424" data-spm-anchor-id="a313x.7781069.0.i44" class="selected"></path></svg>