<?xml version="1.0" standalone="no"?><!DOCTYPE svg PUBLIC "-//W3C//DTD SVG 1.1//EN" "http://www.w3.org/Graphics/SVG/1.1/DTD/svg11.dtd"><svg t="1597113718881" class="icon" viewBox="0 0 1024 1024" version="1.1" xmlns="http://www.w3.org/2000/svg" p-id="4634" xmlns:xlink="http://www.w3.org/1999/xlink" width="211.71875" height="200"><defs><style type="text/css"></style></defs><path d="M178.7 312.2c11 0 19.9-8.9 19.9-20.8 0-49.2 40.1-89.2 89.3-89.2 16.1 0 31.4 4.8 45 10.7 1.5 0.9 3.2 1.4 4.7 2.4l-15 17.5c-2.6 3.1-3.4 7.2-2.1 10.8 1.3 3.3 4.1 5.6 7.6 6.1l76.3 11.4c3.4 0 6.7-1.7 8.8-4.6 2.1-2.9 2.7-6.3 1.7-9.6l-22.3-72.2c-1.3-4.1-4.9-6.8-9.3-6.8-3.1 0-6.1 1.4-8.3 3.9l-11 16.5c-22.6-16.8-48.9-25.7-76.1-25.7-71.1 0-129 57.9-129 129.8 0 10.9 8.9 19.8 19.8 19.8zM396.8 270.1c-10.9 0-19.8 8.9-19.7 21.4 0 49.2-40.1 89.3-89.3 89.3-15.1 0-29.8-4.4-43.2-9.8-1.7-0.9-3.6-1.5-5.2-2.6l15.1-16.7c2.7-3 3.6-7.1 2.4-10.7-1.2-3.3-4-5.7-7.4-6.3l-76.3-13.2c-3.4 0-6.6 1.7-8.7 4.5-2.1 2.8-2.8 6.2-1.9 9.4l20.6 72.8c1.2 4.2 4.9 7 9.3 7 3.1 0 6-1.4 8.1-3.7l11.4-16.1c22.2 16.4 48.4 25.1 75.8 25.1 71.1 0 129-57.9 128.6-131.5-0.4-10.6-9.1-18.9-19.6-18.9zM481 481.7H207.9c-17.9 0-32.5 14.6-32.5 32.5s14.6 32.5 32.5 32.5H481c17.9 0 32.5-14.6 32.5-32.5 0-17.8-14.6-32.5-32.5-32.5z" p-id="4635" fill="#BFBFBF"></path><path d="M161.7 837.5c-26.1 0-47.3-21.2-47.3-47.3V106c0-26.1 21.2-47.3 47.3-47.3h320.7v88.6c0 46.8 38.1 84.9 84.9 84.9h95.1l5.3 4.5 0.5 4.6v322.1H727V241.2l-0.5-5.7c-1.3-23-10.3-44.7-25.3-61.3L572.6 32.7C553.7 11.9 526.8 0 498.8 0H161.7c-58.5 0-106 47.5-106 106v684.3c0 58.4 47.6 106 106 106h347.2v-58.7H161.7z" p-id="4636" fill="#BFBFBF"></path><path d="M511.5 640.6c2.9-15.9 10.5-30.2 21.1-42.4H207.9c-17.9 0-32.5 14.6-32.5 32.5s14.6 32.5 32.5 32.5h301v-14.8l2.6-7.8zM175.3 747.1c0 17.9 14.6 32.5 32.5 32.5h301v-65.1h-301c-17.8 0.1-32.5 14.7-32.5 32.6zM926.1 1022.8H602.3c-0.7-0.3-1.5-0.6-2.2-0.8-18.7-3.4-31.2-14.1-37.6-32-1.1-3.1-1.7-6.4-2.5-9.5V656.8c0.3-0.7 0.6-1.5 0.8-2.2 3.8-20.6 16.1-33.3 36.2-38.7 1.8-0.5 3.6-0.9 5.3-1.3h278.3c11.6 2.6 20.7 9.5 28.9 17.4 13.7 13.1 27.2 26.6 40.3 40.2 8.3 8.6 15.7 18 18.4 30.1v278.3c-0.3 0.7-0.6 1.5-0.8 2.2-3.8 20.6-16.1 33.3-36.2 38.7-1.6 0.5-3.4 0.9-5.1 1.3m-161.9-15.6h139.1c11.8 0 18-6.2 18-17.9V836.6c0-11.7-6.3-18-17.9-18H624.8c-11.4 0-17.8 6.3-17.8 17.7v153.1c0 1.8 0 3.7 0.5 5.5 1.9 8.1 8 12.3 17.6 12.3h139.1m-8-235.5h99.2c12.7 0 18.8-6.1 18.8-18.8v-104c0-12.8-6-18.8-18.8-18.8H656.9c-12.5 0-18.7 6.1-18.7 18.5V753c0 12.4 6.2 18.6 18.6 18.6 33.3 0.1 66.3 0.1 99.4 0.1M796 646.2h46.1v109.2H796V646.2" p-id="4637" fill="#BFBFBF"></path></svg>
