<svg class="icon" viewBox="0 0 1024 1024" version="1.1" xmlns="http://www.w3.org/2000/svg" width="200" height="200"><path d="M814.73 313.84h-76.39V212.2c0-9.52-7.72-16.98-17.57-16.98h-418.7c-9.53 0-17 7.46-17 16.98v101.64h-76.96c-9.53 0-16.99 7.46-16.99 16.98V470c0 36.05 14.55 71.61 39.92 97.58 23.24 23.23 51.95 37.21 83.03 40.42l3.93 0.41 2.15 3.3c37.29 57.38 99.35 95.95 166.02 103.17l7.38 0.79v79.11H376.64c-9.52 0-16.98 7.46-16.98 16.99 0 9.05 7.94 16.98 16.98 16.98h270.13c9.53 0 17.58-7.78 17.58-16.98 0-9.37-7.89-16.99-17.58-16.99H529.28v-79.11l7.37-0.79c66.67-7.22 128.73-45.79 166.03-103.17l2.15-3.3 3.91-0.41c29.8-3.13 58.96-16.94 82.1-38.89l2.78-1.99c24.95-25.15 39.27-60.35 39.27-96.54V330.83c-0.84-9.68-8.65-16.99-18.16-16.99zM283.1 563.73c-8.98-4.48-17.61-10.69-27.17-19.53-20.18-20.83-30.85-46.27-30.85-73.6V347.82h59.98v145.67c0.63 22.03 3.77 41.78 9.61 60.36l5.86 18.57-17.43-8.69z m421.26-70.13c-0.62 29.58-7.84 58.08-21.46 84.7l-0.53 1.08c-33.35 62.37-100.34 102.66-170.67 102.66-69.97 0-136.68-40.21-169.95-102.44l-0.69-1.37c-13.61-27.23-20.82-56.27-21.43-86.33v-2.51l-0.61-260.2h385.33V493.6z m94.55-15.33h-0.93c-1.96 23.6-12.42 46.64-29.48 64.9l-1.37 1.39c-7.53 7.52-16.39 13.94-25.63 18.58l-16.81 8.42 5.17-18.08c5.36-18.79 8.44-38.18 9.67-61.01l-0.01-144.65h59.39v130.45z"></path></svg>
