<svg class="icon" viewBox="0 0 1024 1024" version="1.1" xmlns="http://www.w3.org/2000/svg" width="200" height="200"><path d="M832 64H296c-4.4 0-8 3.6-8 8v56c0 4.4 3.6 8 8 8h496v688c0 4.4 3.6 8 8 8h56c4.4 0 8-3.6 8-8V96c0-17.7-14.3-32-32-32z"></path><path d="M704 192H192c-17.7 0-32 14.3-32 32v530.7c0 8.5 3.4 16.6 9.4 22.6l173.3 173.3c2.2 2.2 4.7 4 7.4 5.5v1.9h4.2c3.5 1.3 7.2 2 11 2H704c17.7 0 32-14.3 32-32V224c0-17.7-14.3-32-32-32zM350 856.2L263.9 770H350v86.2zM664 888H414V746c0-22.1-17.9-40-40-40H232V264h432v624z"></path><path d="M301 663c15.2 0 27.6-12.4 27.6-27.6 0-18.9 11-37.3 31-51.8 22.7-16.4 53.5-25.5 86.5-25.5 40.6 0 72.8 8.5 93 24.7 16.3 13 24.6 30.7 24.6 52.5 0 15.2 12.4 27.6 27.6 27.6 15.2 0 27.6-12.4 27.6-27.6-0.1-18.8-3.9-36.4-11.2-52.4-7.7-16.8-19.2-31.4-34.2-43.4-8.3-6.6-17.6-12.4-27.6-17.2 0.9-0.9 1.7-1.9 2.7-2.9 18.2-21.2 27.4-50.3 27.4-86.2 0-68.5-55.7-124.2-124.2-124.2s-124.2 55.7-124.2 124.2c0 32.1 12.6 63 34.8 86.1-12.7 5.3-24.5 11.9-35 19.5-16.4 11.8-29.5 25.9-38.8 41.7-10.1 17.1-15.2 35.6-15.2 54.8 0 15.3 12.4 27.7 27.6 27.7z m150.8-307.1c42.6 0 77.2 34.6 77.2 77.2 0 25.1-5.3 44.1-15.8 56.3-11.8 13.9-32.5 20.9-61.4 20.9-42.6 0-77.2-34.6-77.2-77.2s34.6-77.2 77.2-77.2z"></path></svg>
