<?xml version="1.0" standalone="no"?><!DOCTYPE svg PUBLIC "-//W3C//DTD SVG 1.1//EN" "http://www.w3.org/Graphics/SVG/1.1/DTD/svg11.dtd"><svg t="1597125639935" class="icon" viewBox="0 0 1024 1024" version="1.1" xmlns="http://www.w3.org/2000/svg" p-id="13471" xmlns:xlink="http://www.w3.org/1999/xlink" width="211.71875" height="200"><defs><style type="text/css"></style></defs><path d="M192 672c19.2 0 32 12.8 32 32v128c0 19.2-12.8 32-32 32s-32-12.8-32-32v-128c0-19.2 12.8-32 32-32zM416 480c19.2 0 32 12.8 32 32v320c0 19.2-12.8 32-32 32s-32-12.8-32-32V512c0-19.2 12.8-32 32-32zM608 608c19.2 0 32 12.8 32 32v192c0 19.2-12.8 32-32 32s-32-12.8-32-32v-192c0-19.2 12.8-32 32-32zM832 448c19.2 0 32 12.8 32 32v352c0 19.2-12.8 32-32 32s-32-12.8-32-32V480c0-19.2 12.8-32 32-32z" fill="#BFBFBF" p-id="13472"></path><path d="M419.2 323.2l-246.4 246.4c-12.8 12.8-32 12.8-44.8 0-12.8-12.8-12.8-32 0-44.8l291.2-291.2 192 192 217.6-217.6c12.8-12.8 32-12.8 44.8 0 12.8 12.8 12.8 32 0 44.8l-262.4 262.4-192-192z" fill="#BFBFBF" p-id="13473"></path></svg>