<svg t="1675322321046" class="icon" viewBox="0 0 1024 1024" version="1.1" xmlns="http://www.w3.org/2000/svg" p-id="10140" width="200" height="200"><path d="M959.3 325.9H65.4c-9.9 0-18-8.1-18-18V92.3c0-9.9 8.1-18 18-18h893.9c9.9 0 18 8.1 18 18v215.6c0 9.9-8 18-18 18z m-875.9-36h857.9V110.3H83.4v179.6z"  p-id="10141"></path><path d="M921.8 944.9H105c-9.9 0-18-8.1-18-18V317.8c0-9.9 8.1-18 18-18s18 8.1 18 18v591.1h780.8V327.4c0-9.9 8.1-18 18-18s18 8.1 18 18v599.5c0 10-8.1 18-18 18z"  p-id="10142"></path><path d="M703.4 577.8H318.5c-9.9 0-18-8.1-18-18V448c0-9.9 8.1-18 18-18h384.9c9.9 0 18 8.1 18 18v111.8c0 10-8 18-18 18z m-366.9-36h348.9V466H336.5v75.8z"  p-id="10143"></path></svg>