<?xml version="1.0" standalone="no"?><!DOCTYPE svg PUBLIC "-//W3C//DTD SVG 1.1//EN" "http://www.w3.org/Graphics/SVG/1.1/DTD/svg11.dtd"><svg t="1605795337381" class="icon" viewBox="0 0 1024 1024" version="1.1" xmlns="http://www.w3.org/2000/svg" p-id="1475" xmlns:xlink="http://www.w3.org/1999/xlink" width="200" height="200"><defs><style type="text/css"></style></defs><path d="M627.2 1024H76.8c-14.08 0-25.6-11.52-25.6-25.6V460.8C51.2 206.08 257.28 0 512 0h115.2c14.08 0 25.6 11.52 25.6 25.6v972.8c0 14.08-11.52 25.6-25.6 25.6zM102.4 972.8h499.2V51.2h-89.6C286.72 51.2 102.4 235.52 102.4 460.8v512z" fill="#333333" p-id="1476"></path><path d="M947.2 1024H627.2c-14.08 0-25.6-11.52-25.6-25.6V332.8c0-8.96 5.12-17.92 12.8-21.76 7.68-5.12 17.92-5.12 25.6 0l320 179.2c7.68 5.12 12.8 12.8 12.8 21.76v486.4c0 14.08-11.52 25.6-25.6 25.6z m-294.4-51.2h268.8V527.36L652.8 376.32V972.8z" fill="#333333" p-id="1477"></path><path d="M998.4 1024H25.6c-14.08 0-25.6-11.52-25.6-25.6s11.52-25.6 25.6-25.6h972.8c14.08 0 25.6 11.52 25.6 25.6s-11.52 25.6-25.6 25.6zM428.8 332.8h-153.6c-14.08 0-25.6-11.52-25.6-25.6s11.52-25.6 25.6-25.6h153.6c14.08 0 25.6 11.52 25.6 25.6s-11.52 25.6-25.6 25.6zM428.8 537.6h-153.6c-14.08 0-25.6-11.52-25.6-25.6s11.52-25.6 25.6-25.6h153.6c14.08 0 25.6 11.52 25.6 25.6s-11.52 25.6-25.6 25.6zM428.8 742.4h-153.6c-14.08 0-25.6-11.52-25.6-25.6s11.52-25.6 25.6-25.6h153.6c14.08 0 25.6 11.52 25.6 25.6s-11.52 25.6-25.6 25.6zM812.8 742.4h-51.2c-14.08 0-25.6-11.52-25.6-25.6s11.52-25.6 25.6-25.6h51.2c14.08 0 25.6 11.52 25.6 25.6s-11.52 25.6-25.6 25.6z" fill="#333333" p-id="1478"></path></svg>