<?xml version="1.0" standalone="no"?><!DOCTYPE svg PUBLIC "-//W3C//DTD SVG 1.1//EN" "http://www.w3.org/Graphics/SVG/1.1/DTD/svg11.dtd"><svg class="icon" width="120px" height="120.00px" viewBox="0 0 1024 1024" version="1.1" xmlns="http://www.w3.org/2000/svg"><path d="M512 512m-512 0a512 512 0 1 0 1024 0 512 512 0 1 0-1024 0Z" fill="#F1F3F7" /><path d="M169.757183 70.219946h659.941628v884.237697H169.757183z" fill="#0090FF" /><path d="M829.698811 134.987009v156.122964h55.222507V190.209516a54.993293 54.993293 0 0 0-55.222507-55.222507z" fill="#F0582F" /><path d="M829.698811 289.746752h55.222507v156.122964h-55.222507z" fill="#FBD303" /><path d="M829.698811 445.188106h55.222507v156.122964h-55.222507z" fill="#73D658" /><path d="M829.698811 601.309059v156.122964a54.993293 54.993293 0 0 0 55.222507-55.222507v-100.900457h-55.222507z" fill="#4B5AA7" /><path d="M220.208416 154.076122h34.770174v66.130284h-34.770174z" fill="#333842" /><path d="M139.078682 169.757183h98.172005v34.088562H139.078682z" fill="#FCFCFD" /><path d="M220.208416 316.33559h34.770174v66.130284h-34.770174z" fill="#333842" /><path d="M139.078682 332.698261h98.172005v34.088563H139.078682z" fill="#FCFCFD" /><path d="M220.208416 479.274658h34.770174v66.130284h-34.770174z" fill="#333842" /><path d="M139.078682 494.955719h98.172005v34.088562H139.078682z" fill="#FCFCFD" /><path d="M220.208416 641.534126h34.770174v66.130284h-34.770174z" fill="#333842" /><path d="M139.078682 657.213176h98.172005v34.088563H139.078682z" fill="#FCFCFD" /><path d="M220.208416 803.791584h34.770174v66.130283h-34.770174z" fill="#333842" /><path d="M139.078682 820.154255h98.172005v34.088562H139.078682zM357.921867 316.33559h350.422143v237.932298H357.921867z" fill="#FCFCFD" /><path d="M433.596708 379.739432h199.072462v27.270448H433.596708zM433.596708 463.595608h199.072462v27.270448H433.596708z" fill="#DEDEDF" /></svg>