<?xml version="1.0" standalone="no"?><!DOCTYPE svg PUBLIC "-//W3C//DTD SVG 1.1//EN" "http://www.w3.org/Graphics/SVG/1.1/DTD/svg11.dtd"><svg t="1597125223401" class="icon" viewBox="0 0 1024 1024" version="1.1" xmlns="http://www.w3.org/2000/svg" p-id="6730" xmlns:xlink="http://www.w3.org/1999/xlink" width="211.71875" height="200"><defs><style type="text/css"></style></defs><path d="M852.986802 59.256853v906.525888H169.973604V59.256853h683.013198M912.243655 0H111.756345v1024h800.48731V0z" p-id="6731" fill="#BFBFBF"></path><path d="M247.943147 132.028426h81.088325v81.088325h-81.088325zM397.64467 132.028426h81.088325v81.088325h-81.088325zM547.346193 132.028426h81.088325v81.088325h-81.088325zM697.047716 132.028426h81.088325v81.088325h-81.088325zM247.943147 280.690355h81.088325v81.088325h-81.088325zM397.64467 280.690355h81.088325v81.088325h-81.088325zM547.346193 280.690355h81.088325v81.088325h-81.088325zM697.047716 280.690355h81.088325v81.088325h-81.088325zM697.047716 726.676142h81.088325v81.088325h-81.088325zM247.943147 726.676142h81.088325v81.088325h-81.088325z" p-id="6732" fill="#BFBFBF"></path><path d="M395.565482 835.833503h231.829442v115.394923H395.565482z" fill="#BFBFBF" p-id="6733"></path><path d="M395.565482 806.724873h231.829442v164.255838H395.565482zM247.943147 429.352284h81.088325v81.088325h-81.088325zM397.64467 429.352284h81.088325v81.088325h-81.088325zM547.346193 429.352284h81.088325v81.088325h-81.088325zM697.047716 429.352284h81.088325v81.088325h-81.088325z" p-id="6734" fill="#BFBFBF"></path><path d="M247.943147 578.014213h81.088325v81.088325h-81.088325zM397.64467 578.014213h81.088325v81.088325h-81.088325zM547.346193 578.014213h81.088325v81.088325h-81.088325zM697.047716 578.014213h81.088325v81.088325h-81.088325z" p-id="6735" fill="#BFBFBF"></path></svg>