<?xml version="1.0" standalone="no"?><!DOCTYPE svg PUBLIC "-//W3C//DTD SVG 1.1//EN" "http://www.w3.org/Graphics/SVG/1.1/DTD/svg11.dtd"><svg t="1620535693527" class="icon" viewBox="0 0 1024 1024" version="1.1" xmlns="http://www.w3.org/2000/svg" p-id="3174" data-spm-anchor-id="a313x.7781069.0.i4" width="32" height="32" xmlns:xlink="http://www.w3.org/1999/xlink"><defs><style type="text/css"></style></defs><path d="M492.544 663.7568c-6.7584 0-13.7216-2.6624-18.8416-7.7824l-113.0496-113.0496c-5.9392-4.9152-9.6256-12.0832-9.6256-20.2752 0-14.7456 11.6736-26.624 26.4192-26.624h0.6144c6.9632 0 13.9264 2.8672 18.8416 7.7824l114.4832 114.4832a26.58304 26.58304 0 0 1-18.8416 45.4656z" fill="#4e6ef2" p-id="3175"></path><path d="M312.7296 909.312c-9.4208 0-18.8416-3.072-26.8288-9.0112-13.5168-9.8304-20.2752-27.2384-16.9984-44.032l37.888-221.5936-161.3824-157.696c-11.8784-11.4688-16.384-29.4912-11.264-45.4656 5.12-15.9744 19.2512-27.8528 35.84-30.3104l222.8224-31.9488 100.5568-202.3424c7.3728-14.9504 22.528-24.576 39.3216-24.7808h0.2048c16.7936 0 32.5632 9.6256 39.936 24.7808l99.7376 202.3424 223.232 32.3584c15.9744 1.4336 30.9248 13.1072 36.4544 29.9008 5.12 16.5888 0.8192 33.5872-10.8544 45.056l-121.856 118.5792c-12.0832 11.8784-31.5392 11.6736-43.4176-0.6144a30.72 30.72 0 0 1 0.6144-43.4176l96.4608-93.7984-205.2096-29.696c-10.0352-1.4336-18.6368-7.7824-23.1424-16.7936L533.0944 225.28l-92.3648 185.9584c-4.5056 9.0112-13.1072 15.36-23.1424 16.7936l-204.3904 29.2864 148.0704 144.7936c7.168 6.9632 10.4448 17.2032 8.8064 27.2384l-35.0208 204.8 183.7056-96.6656c9.0112-4.7104 19.6608-4.7104 28.672 0l181.0432 95.0272-69.4272-283.8528c-4.096-16.384 6.144-33.1776 22.528-37.0688 16.5888-4.096 33.1776 6.144 37.0688 22.528l78.4384 320.3072c3.2768 13.312 0.2048 27.648-8.6016 38.5024-8.6016 10.6496-21.7088 17.2032-35.6352 16.384-6.144-0.2048-13.1072-1.6384-19.456-4.9152l-200.0896-105.0624-199.68 105.0624c-6.5536 3.2768-13.7216 4.9152-20.8896 4.9152zM737.28 868.7616c0 0.2048 0 0.2048 0 0z m-407.7568-2.048l-0.2048 0.6144c0.2048-0.2048 0.2048-0.4096 0.2048-0.6144z m-24.576-16.9984c-0.2048 0-0.2048 0.2048-0.4096 0.2048l0.4096-0.2048z m582.0416-387.2768c0.6144 0.2048 1.2288 0.2048 1.8432 0.2048l-1.8432-0.2048zM188.416 432.7424c0 0.2048 0 0.2048 0 0zM548.4544 194.1504z m-30.72 0z" fill="#4e6ef2" p-id="3176"></path><path d="M676.0448 258.6624c-7.7824 0-15.7696-3.072-21.7088-9.0112a30.5152 30.5152 0 0 1 0-43.4176l82.5344-82.5344c12.0832-12.0832 31.5392-12.0832 43.4176 0s12.0832 31.5392 0 43.4176l-82.5344 82.5344c-5.9392 6.144-13.7216 9.0112-21.7088 9.0112zM120.2176 796.0576c-7.7824 0-15.7696-3.072-21.7088-9.0112a30.5152 30.5152 0 0 1 0-43.4176l121.0368-121.0368c12.0832-12.0832 31.5392-12.0832 43.4176 0s12.0832 31.5392 0 43.4176l-121.0368 121.0368c-5.9392 5.9392-13.9264 9.0112-21.7088 9.0112zM709.2224 356.1472c-7.7824 0-15.7696-3.072-21.7088-9.0112a30.5152 30.5152 0 0 1 0-43.4176l73.728-74.1376a30.5152 30.5152 0 0 1 43.4176 0c12.0832 11.8784 12.0832 31.3344 0 43.4176l-73.728 74.1376c-5.9392 6.144-13.7216 9.0112-21.7088 9.0112z" fill="#4e6ef2" p-id="3177"></path></svg>