<svg class="icon" viewBox="0 0 1024 1024" version="1.1" xmlns="http://www.w3.org/2000/svg" xmlns:xlink="http://www.w3.org/1999/xlink" width="200" height="200"><path d="M828 979H208.7C146.5 979 96 928.4 96 866.3V114.7c0-36.4 29.6-65.9 65.9-65.9h712.8c36.4 0 65.9 29.6 65.9 65.9v751.6C940.7 928.4 890.2 979 828 979zM162 88.8c-14.3 0-25.9 11.6-25.9 25.9v751.6c0 40.1 32.6 72.7 72.7 72.7H828c40.1 0 72.7-32.6 72.7-72.7V114.7c0-14.3-11.6-25.9-25.9-25.9H162z" ></path><path d="M920.7 254H116c-11 0-20-9-20-20s9-20 20-20h804.7c11 0 20 9 20 20s-9 20-20 20zM828 615.8H208.7c-11 0-20-9-20-20s9-20 20-20H828c11 0 20 9 20 20s-8.9 20-20 20zM619.3 496.1c-0.7 0-1.4 0-2.1-0.1-5.3-0.6-10.2-3.2-13.6-7.5l-81.9-82.9c-6.9-8.6-5.4-21.2 3.2-28.1 8.6-6.9 21.2-5.4 28.1 3.2l69.2 67 124.4-116.3c8.5-7 21.1-5.9 28.2 2.6 7 8.5 5.9 21.1-2.6 28.2L632.1 491.5c-3.6 3-8.1 4.6-12.8 4.6zM719.2 873.6c-5.1 0-10.2-2-14.1-5.9L563.6 726.3c-7.8-7.8-7.8-20.5 0-28.3 7.8-7.8 20.5-7.8 28.3 0l141.5 141.5c7.8 7.8 7.8 20.5 0 28.3-3.9 3.9-9 5.8-14.2 5.8z"></path><path d="M577.7 873.6c-5.1 0-10.2-2-14.1-5.9-7.8-7.8-7.8-20.5 0-28.3L705.1 698c7.8-7.8 20.5-7.8 28.3 0 7.8 7.8 7.8 20.5 0 28.3L591.9 867.8c-4 3.9-9.1 5.8-14.2 5.8z"></path></svg>
