<svg class="icon" viewBox="0 0 1024 1024" version="1.1" xmlns="http://www.w3.org/2000/svg" xmlns:xlink="http://www.w3.org/1999/xlink" width="200" height="200"><path d="M892.8 467c-12.1-3.6-24.9 3.3-28.5 15.5l-78.2 263.9C754 631.3 664.6 539.9 550.6 505.2c57.2-34.7 95.5-97.5 95.5-169.1 0-108.9-88.6-197.6-197.6-197.6S251 227.1 251 336c0 71.6 38.3 134.4 95.5 169.1C202.9 548.9 98.2 682.6 98.2 840.3c0 11.5 0.6 23.2 1.8 35l2 20.7h693.1l2.1-20.7c0.3-2.7 0.5-5.4 0.7-8.1 0.5-1 0.9-2 1.2-3.1l109.2-368.6c3.6-12.1-3.4-24.9-15.5-28.5z m-596-131c0-83.7 68.1-151.7 151.7-151.7S600.3 252.4 600.3 336s-68.1 151.7-151.7 151.7-151.8-68-151.8-151.7z m456.1 514.1H144.2c-0.1-3.3-0.2-6.6-0.2-9.8 0-160.6 124.9-292.5 282.7-303.7v129.8c0 2.1-0.4 4.1-1.2 6l-18.1 42.2c-2.2 5.2-1.4 11.2 2.1 15.6l28.2 35.2c6.1 7.7 17.8 7.7 23.9 0l28.2-35.2c3.5-4.4 4.3-10.4 2.1-15.6l-18.1-42.2c-0.8-1.9-1.2-4-1.2-6V536.7C629.3 549 753.1 680.5 753.1 840.3c0 3.2-0.1 6.5-0.2 9.8zM908.1 169H724.7c-12.7 0-22.9 10.3-22.9 22.9 0 12.7 10.3 22.9 22.9 22.9h183.4c12.7 0 22.9-10.3 22.9-22.9 0-12.6-10.3-22.9-22.9-22.9z"></path><path d="M847 337.1c12.7 0 22.9-10.3 22.9-22.9s-10.3-22.9-22.9-22.9H724.7c-12.7 0-22.9 10.3-22.9 22.9s10.3 22.9 22.9 22.9H847z"></path></svg>
